<svg xmlns="http://www.w3.org/2000/svg" viewBox="0 0 788.26 130"><title>CAMPFIRE</title><g id="mark" data-name="mark"><g id="type" data-name="type"><g id="logo"><path d="M781.61,13.53a6.66,6.66,0,0,0,6.64-6.64V6.64A6.66,6.66,0,0,0,781.61,0h-54A6.66,6.66,0,0,0,721,6.64v.24h0V123.36a6.66,6.66,0,0,0,6.64,6.64h54a6.66,6.66,0,0,0,6.64-6.64v-.24a6.66,6.66,0,0,0-6.64-6.64H734.5V71.76h43.26a6.66,6.66,0,0,0,6.64-6.64v-.24a6.66,6.66,0,0,0-6.64-6.64H734.5V13.53Z" style="fill:#f64744"/><path d="M149.59,13.33a32,32,0,0,1,18.71,5.56c2.87,1.79,4.34,3,6.84,3a6.45,6.45,0,0,0,6.65-6.27C181.79,7.23,165.3.24,149,.24c-27.6,0-41.4,18.1-41.4,45.7V84.3c0,27.6,13.9,45.7,41.5,45.7,16.31,0,32.31-7,32.31-15.41a6,6,0,0,0-6.16-6.27c-2.51,0-3.26,1.25-6.31,3-5.38,3.77-12.43,5.56-19.42,5.56-20.25,0-28.38-12.55-28.38-32.62V45.94c0-20.07,8.2-32.62,28.45-32.62" style="fill:#f64744"/><path d="M457.17.24H424v0c-.12,0-.24,0-.36,0h-.24a6.66,6.66,0,0,0-6.64,6.64V123.36a6.66,6.66,0,0,0,6.64,6.64h.24a6.66,6.66,0,0,0,6.64-6.64V72h26.87C477.52,72,494,55.94,494,36.12S477.52.24,457.17.24Zm0,58.58H430.31V13.42h26.91c12.87,0,23.3,10.16,23.3,22.7S470.08,58.83,457.21,58.83Z" style="fill:#f64744"/><path d="M394.54,5.58l0-.1a6.67,6.67,0,0,0-.33-1.06c0-.12-.11-.23-.16-.35a6.65,6.65,0,0,0-.4-.73c-.11-.17-.23-.32-.35-.48s-.25-.33-.39-.48a6.67,6.67,0,0,0-.63-.59L392,1.6a6.6,6.6,0,0,0-2.27-1.1l-.35-.11h-.1a6.59,6.59,0,0,0-2.79,0l-.14,0a6.7,6.7,0,0,0-1,.31l-.41.19a6.59,6.59,0,0,0-.65.36,6.7,6.7,0,0,0-.56.41c-.13.11-.27.21-.39.32a6.66,6.66,0,0,0-.68.73l-.12.15a6.62,6.62,0,0,0-.93,1.64L345.07,81,308.55,4.52a6.62,6.62,0,0,0-.93-1.64l-.12-.15a6.67,6.67,0,0,0-.68-.73c-.13-.12-.26-.22-.39-.32a5.64,5.64,0,0,0-1.21-.76L304.8.72a6.7,6.7,0,0,0-1-.31l-.14,0a6.59,6.59,0,0,0-2.79,0h-.1l-.35.11a6.6,6.6,0,0,0-2.27,1.1l-.26.21a6.67,6.67,0,0,0-.63.59c-.14.15-.27.31-.39.48s-.24.31-.35.48a6.65,6.65,0,0,0-.4.73c-.05.12-.11.23-.16.35a6.67,6.67,0,0,0-.33,1.06l0,.1a6.61,6.61,0,0,0-.13,1.91V123.36a6.66,6.66,0,0,0,6.64,6.64h.24a6.66,6.66,0,0,0,6.64-6.64V36.85l29.85,62.48a6.65,6.65,0,0,0,6,3.76h.37a6.65,6.65,0,0,0,6-3.76l29.85-62.48v86.51a6.66,6.66,0,0,0,6.64,6.64H388a6.66,6.66,0,0,0,6.64-6.64V7.49A6.61,6.61,0,0,0,394.54,5.58Z" style="fill:#f64744"/><path d="M704.09,119.92,675.93,71.15c16.58-3.5,29-17.86,29-35.06C704.93,16.27,688.44.2,668.1.2H634.95v0c-.12,0-.24,0-.36,0h-.24a6.66,6.66,0,0,0-6.64,6.64V123.31a6.66,6.66,0,0,0,6.64,6.64h.24a6.66,6.66,0,0,0,6.64-6.64V72h19.56l31.58,54.7a6.66,6.66,0,0,0,9.08,2.43l.21-.12A6.66,6.66,0,0,0,704.09,119.92ZM641.23,13.38h26.91c12.87,0,23.3,10.17,23.3,22.71S681,58.8,668.14,58.8H641.23Z" style="fill:#f64744"/><path d="M569.89,0h-54a6.66,6.66,0,0,0-6.64,6.64v.24h0V123.36A6.66,6.66,0,0,0,515.9,130h.24a6.66,6.66,0,0,0,6.64-6.64V71.76H566a6.66,6.66,0,0,0,6.64-6.64v-.24A6.66,6.66,0,0,0,566,58.24H522.78V13.53h47.11a6.66,6.66,0,0,0,6.64-6.64V6.64A6.66,6.66,0,0,0,569.89,0Z" style="fill:#f64744"/><path d="M279.23,121.5l-36-116.65A6.64,6.64,0,0,0,237.38.23c-.2,0-.39,0-.59,0s-.39,0-.59,0a6.64,6.64,0,0,0-5.84,4.62l-36,116.65a6.59,6.59,0,0,0,4.41,8.22,6.68,6.68,0,0,0,8.3-4.37L215,99.69c.21,0,.41.06.62.06h42a6.41,6.41,0,0,0,1-.11l7.93,25.7a6.68,6.68,0,0,0,8.3,4.37A6.59,6.59,0,0,0,279.23,121.5ZM219.14,86.22,236.79,29l17.65,57.18Z" style="fill:#f64744"/><path d="M598.87.24A6.78,6.78,0,0,0,592.11,7V123.24a6.76,6.76,0,1,0,13.53,0V7A6.78,6.78,0,0,0,598.87.24Z" style="fill:#f64744"/><path d="M79.75,94.27A7.64,7.64,0,0,1,78,94.09a8.22,8.22,0,0,1-6.3-7.72c0-2.89,1.47-5.32,2.34-8a49.21,49.21,0,0,0,2-9c1.45-11.61-.85-23.17-9.35-31.59-6.5-6.44-15.59-9.76-21.29-17a31.18,31.18,0,0,1-5.16-10.23C40,9.87,38.54,4.09,38,1A1.26,1.26,0,0,0,35.85.35c-2.58,2.48-4.56,7.84-5.41,10.4a35,35,0,0,0,1.42,24.8l.35.8.07.13c.27.45,1.9,3.23,3.68,6.73l.06.11.07.1h0c3.69,7.3,8.11,17.11-.22,23.19-3.12,2.28-6.9,2.42-9.64-.46a10.25,10.25,0,0,1-2.45-7.42,30.42,30.42,0,0,1,1.66-7.83c.24-.77.52-1.56.76-2.35A1.26,1.26,0,0,0,24.45,47a33.08,33.08,0,0,0-3.61,2.15,43.61,43.61,0,1,0,52.25,69.32c6.43-5.9,13-15.81,13.81-25.11a1.26,1.26,0,0,0-2-1.1,8.41,8.41,0,0,1-5.09,2" style="fill:#f64744"/><path d="M44.49,83.43a8.18,8.18,0,0,1,4.78,1.42c.73.46,1.11.78,1.75.78A1.65,1.65,0,0,0,52.72,84c0-2.16-4.1-3.95-8.28-3.95C37.38,80.08,34,84.71,34,91.78v9.82c0,7.07,3.43,11.7,10.5,11.7,4.18,0,8.21-1.79,8.21-3.95a1.57,1.57,0,0,0-1.61-1.61c-.64,0-.85.32-1.63.78a8.74,8.74,0,0,1-5,1.42c-5.19,0-7.26-3.21-7.26-8.35V91.78c0-5.14,2.09-8.36,7.27-8.36" style="fill:#fff"/></g></g></g></svg>
